<svg xmlns="http://www.w3.org/2000/svg">
  <defs>
  <symbol id="icon-plane" viewBox="0 0 100 125">
  <svg xmlns="http://www.w3.org/2000/svg" xmlns:xlink="http://www.w3.org/1999/xlink" version="1.1" x="0px" y="0px" viewBox="0 0 100 125" style="enable-background:new 0 0 100 100;" xml:space="preserve"><style type="text/css">
	.st0{fill:none;stroke:#000000;stroke-width:2;stroke-linecap:round;stroke-linejoin:round;stroke-miterlimit:10;}
	.st1{fill:none;stroke:#000000;stroke-width:2;stroke-miterlimit:10;}
	.st2{stroke:#000000;stroke-linecap:round;stroke-linejoin:round;stroke-miterlimit:10;}
</style><path d="M44.6,33.3c0.4,0,0.9,0,1.3-0.1c1.9,2.3,4.7,3.6,7.7,3.6c1.8,0,3.5-0.5,5.1-1.4c1.1,0.9,2.5,1.4,4,1.4  c3.5,0,6.4-2.9,6.4-6.4c0-3.3-2.6-6.1-5.8-6.4c-1.2-4.3-5.2-7.3-9.7-7.3c-3,0-5.8,1.3-7.7,3.6c-0.4-0.1-0.9-0.1-1.3-0.1  c-3.6,0-6.6,2.9-6.6,6.6S41,33.3,44.6,33.3z M44.6,22.2c0.5,0,1,0.1,1.4,0.2c0.4,0.1,0.9,0,1.1-0.4c1.5-2.1,3.9-3.3,6.5-3.3  c3.8,0,7.1,2.7,7.9,6.5c0.1,0.5,0.5,0.8,1,0.8c0,0,0.1,0,0.1,0c2.5,0,4.4,2,4.4,4.4c0,2.4-2,4.4-4.4,4.4c-1.2,0-2.3-0.5-3.2-1.3  c-0.2-0.2-0.5-0.3-0.7-0.3c-0.2,0-0.4,0.1-0.6,0.2c-1.4,0.9-3,1.5-4.6,1.5c-2.6,0-5-1.2-6.5-3.3c-0.3-0.4-0.7-0.5-1.1-0.4  c-0.5,0.1-0.9,0.2-1.4,0.2c-2.5,0-4.6-2-4.6-4.6S42.1,22.2,44.6,22.2z"/><path d="M20.9,71.5c1.5,0,2.8-0.5,4-1.4c1.5,0.9,3.3,1.4,5.1,1.4c3,0,5.8-1.3,7.7-3.6C38.1,68,38.5,68,39,68c3.6,0,6.6-2.9,6.6-6.6  s-2.9-6.6-6.6-6.6c-0.4,0-0.9,0-1.3,0.1c-1.9-2.3-4.7-3.6-7.7-3.6c-4.5,0-8.4,3-9.7,7.3c-3.3,0.3-5.8,3.1-5.8,6.4  C14.5,68.6,17.4,71.5,20.9,71.5z M20.9,60.7c0,0,0.1,0,0.1,0c0.5,0,0.9-0.3,1-0.8c0.7-3.7,4.1-6.5,7.9-6.5c2.6,0,5,1.2,6.5,3.3  c0.3,0.4,0.7,0.5,1.1,0.4c0.5-0.1,0.9-0.2,1.4-0.2c2.5,0,4.6,2,4.6,4.6S41.5,66,39,66c-0.5,0-1-0.1-1.4-0.2c-0.4-0.1-0.9,0-1.1,0.4  c-1.5,2.1-3.9,3.3-6.5,3.3c-1.7,0-3.2-0.5-4.6-1.5c-0.2-0.1-0.4-0.2-0.6-0.2c-0.3,0-0.5,0.1-0.7,0.3c-0.8,0.9-2,1.3-3.2,1.3  c-2.4,0-4.4-2-4.4-4.4C16.5,62.6,18.5,60.7,20.9,60.7z"/><path d="M39,45.4c0.8,1.1,1.8,2,3.1,3c1.6,1.2,3.2,2.3,4.9,3.5l2.1,1.5c0.5,0.3,0.6,0.6,0.6,1.2c-0.1,1.3-0.1,2.7-0.2,4l-0.8,16.2  c0,0.8,0,1.8,0.4,2.9c0.5,1.3,1.5,2.3,3,2.9c0.3,0.1,0.5,0.2,0.8,0.3c0.3,0.1,0.7,0.1,1,0.1c1.1,0,1.9-0.6,2.3-1.8  c0.2-0.6,0.4-1.3,0.6-1.9L59.8,66c0.3-1.1,0.8-2.1,1.3-3.2l0.2-0.4l1.4,0.9c2.5,1.6,5.1,3.3,7.6,4.9c-0.1,0.7-0.2,1.4-0.3,2.1  l-0.1,0.9c-0.2,1.2-0.1,2.2,0.4,3.1c0.5,1,1.4,1.7,2.6,2c1,0.3,1.7-0.3,2.1-0.5c0.4-0.3,0.7-0.6,0.9-0.9c1.9-2.9,3.8-5.7,5.6-8.6  l1.4-2.1c0.2-0.2,0.3-0.5,0.5-0.7c0.6-1.1,0.5-2-0.5-2.8c-0.5-0.4-0.9-0.8-1.4-1.1c-0.9-0.7-2-0.7-3-0.1c-0.8,0.4-1.5,0.9-2.3,1.4  L75,61.1c-0.1,0-0.1,0.1-0.2,0.1c-0.6-0.5-1.3-1-1.9-1.5l-6.4-5.1c0.1-0.2,0.3-0.5,0.4-0.7c0.7-1.1,1.7-1.9,2.8-2.8  c3-2.4,5.9-4.8,8.9-7.3c0.3-0.2,0.6-0.5,1-0.9c0.8-0.9,0.9-2,0.2-3c-0.7-1-1.6-1.8-2.6-2.5c-0.6-0.4-1.5-0.7-2.9-0.2  c-0.6,0.2-1.2,0.5-1.7,0.7L56,45.6c-0.3,0.2-0.6,0.3-0.9,0.4c-0.5,0.1-0.9,0-1.3-0.3c-0.5-0.4-1-0.8-1.5-1.1  c-0.8-0.6-1.6-1.2-2.4-1.8c-1.7-1.2-3.1-2.2-4.4-3c-1.4-0.9-3-1.4-4.7-1.5c-1-0.1-1.9,0.2-2.5,0.8c-1,0.8-1.3,2.2-0.8,3.5  C37.8,43.7,38.4,44.6,39,45.4z M39.5,40.6c0.2-0.1,0.5-0.3,1.1-0.3c1.4,0.1,2.7,0.5,3.8,1.2c1.3,0.8,2.6,1.7,4.3,2.9  c0.8,0.6,1.5,1.1,2.3,1.7c0.5,0.4,1,0.8,1.5,1.1c0.9,0.7,2,0.9,3,0.6c0.4-0.1,0.9-0.3,1.3-0.5l16.5-7.8c0.5-0.2,1-0.4,1.6-0.7  c0.6-0.2,0.9-0.1,1.1,0c0.9,0.6,1.6,1.2,2.1,2c0.1,0.2,0.2,0.2-0.1,0.5c-0.3,0.3-0.5,0.5-0.8,0.7c-3,2.4-5.9,4.8-8.9,7.3  c-1.2,1-2.4,2-3.2,3.3c-0.2,0.4-0.4,0.7-0.7,1.1L63.9,55l3.2,2.6l4.6,3.7c0.8,0.6,1.5,1.2,2.3,1.9c0.5,0.4,1.1,0.4,1.5,0  c0.2-0.1,0.3-0.2,0.5-0.3l0.9-0.6c0.8-0.5,1.5-0.9,2.3-1.4c0.3-0.2,0.6-0.2,0.9,0c0.4,0.3,0.9,0.7,1.3,1c0.1,0.1,0.1,0.1,0.1,0.1  c0,0,0,0.1-0.1,0.2c-0.1,0.2-0.3,0.4-0.4,0.6L79.7,65c-1.9,2.9-3.7,5.7-5.6,8.6c-0.1,0.2-0.2,0.3-0.4,0.4c-0.3,0.2-0.3,0.2-0.4,0.2  c-0.6-0.2-1-0.5-1.3-1c-0.3-0.5-0.3-1.1-0.2-1.8l0.1-0.9c0.1-0.8,0.3-1.7,0.4-2.5c0.1-0.3,0.1-1-0.6-1.4c-2.7-1.7-5.3-3.4-8-5.1  l-3.3-2L59.8,61l-0.4,0.9c-0.6,1.2-1.1,2.3-1.5,3.6l-3.1,11.1c-0.2,0.6-0.3,1.2-0.5,1.8C54,78.9,54,79,53.4,78.8  c-0.2-0.1-0.4-0.1-0.6-0.2c-1-0.4-1.6-0.9-1.9-1.7c-0.2-0.5-0.3-1.2-0.2-2l0.8-16.2c0.1-1.3,0.1-2.6,0.2-4c0.1-1.3-0.4-2.4-1.5-3.1  l-2-1.4c-1.6-1.2-3.2-2.3-4.8-3.5c-1.2-0.8-2-1.6-2.7-2.5c-0.5-0.7-1.1-1.5-1.4-2.4C39,41.4,39.1,40.9,39.5,40.6z"/><text x="0" y="115" fill="#000000" font-size="5px" font-weight="bold" font-family="'Helvetica Neue', Helvetica, Arial-Unicode, Arial, Sans-serif">Created by Made by Made</text><text x="0" y="120" fill="#000000" font-size="5px" font-weight="bold" font-family="'Helvetica Neue', Helvetica, Arial-Unicode, Arial, Sans-serif">from the Noun Project</text></svg>
  </symbol>
    <!-- Icons go here -->
  </defs>
</svg>