<svg xmlns="http://www.w3.org/2000/svg">
  <defs>
  <symbol id="icon-suitcase" viewBox="0 0 100 125">
  <svg xmlns="http://www.w3.org/2000/svg" xmlns:xlink="http://www.w3.org/1999/xlink" version="1.1" x="0px" y="0px" viewBox="0 0 100 125" style="enable-background:new 0 0 100 100;" xml:space="preserve"><style type="text/css">
	.st0{fill:none;stroke:#000000;stroke-width:2;stroke-linecap:round;stroke-linejoin:round;stroke-miterlimit:10;}
	.st1{fill:none;stroke:#000000;stroke-width:2;stroke-miterlimit:10;}
	.st2{stroke:#000000;stroke-linecap:round;stroke-linejoin:round;stroke-miterlimit:10;}
    </style><path d="M13.7,35.9v38.7c0,3.7,3.1,6.8,6.8,6.8H28h6.8h29.5H71h8.9c3.7,0,6.8-3.1,6.8-6.8V35.9c0-3.7-3.1-6.8-6.8-6.8H71h-5.8v-3.8  c0-3.9-3.1-7-7-7H40.8c-1.2,0-2.2,0.3-3.2,0.8c0.4-1.8-0.3-3.8-2-4.9l-7.2-4.8c-0.2-0.1-0.5-0.2-0.8-0.1c-0.3,0.1-0.5,0.2-0.6,0.4  l-4.2,6.2c-0.3,0.5-0.2,1.1,0.3,1.4l7.2,4.8c0.8,0.5,1.7,0.8,2.6,0.8c0.5,0,0.9-0.1,1.4-0.2c-0.3,0.8-0.5,1.7-0.5,2.6v3.8H28h-7.5  C16.7,29.1,13.7,32.2,13.7,35.9z M72,31.1h7.9c2.6,0,4.8,2.2,4.8,4.8v38.7c0,2.6-2.2,4.8-4.8,4.8H72V31.1z M65.3,31.1H70v48.3h-4.8  V31.1z M35.8,25.3c0-2.8,2.2-5,5-5h17.5c2.8,0,5,2.2,5,5v3.8H35.8V25.3z M35.8,31.1h27.5v48.3H35.8V31.1z M31.4,20.5L25,16.2  l3.1-4.6l6.4,4.2c1.3,0.8,1.6,2.6,0.8,3.8C34.4,21,32.7,21.3,31.4,20.5z M29,31.1h4.8v48.3H29V31.1z M15.7,35.9  c0-2.6,2.2-4.8,4.8-4.8H27v48.3h-6.5c-2.6,0-4.8-2.2-4.8-4.8V35.9z"/><path d="M53.9,36.4h-9.4c-0.6,0-1,0.4-1,1s0.4,1,1,1h9.4c0.6,0,1-0.4,1-1S54.4,36.4,53.9,36.4z"/><text x="0" y="115" fill="#000000" font-size="5px" font-weight="bold" font-family="'Helvetica Neue', Helvetica, Arial-Unicode, Arial, Sans-serif">Created by Made by Made</text><text x="0" y="120" fill="#000000" font-size="5px" font-weight="bold" font-family="'Helvetica Neue', Helvetica, Arial-Unicode, Arial, Sans-serif">from the Noun Project</text></svg>
  </symbol>
    <!-- Icons go here -->
  </defs>
</svg>
