<svg xmlns="http://www.w3.org/2000/svg">
  <defs>
  <symbol id="icon-tag" viewBox="0 0 100 125">
  <svg xmlns="http://www.w3.org/2000/svg" xmlns:xlink="http://www.w3.org/1999/xlink" version="1.1" x="0px" y="0px" viewBox="0 0 100 125" style="enable-background:new 0 0 100 100;" xml:space="preserve"><style type="text/css">
	.st0{fill:none;stroke:#000000;stroke-width:2;stroke-linecap:round;stroke-linejoin:round;stroke-miterlimit:10;}
	.st1{fill:none;stroke:#000000;stroke-width:2;stroke-miterlimit:10;}
	.st2{stroke:#000000;stroke-linecap:round;stroke-linejoin:round;stroke-miterlimit:10;}
</style><path d="M50.4,50.6c-0.3-0.1-0.6-0.1-0.9,0c-0.4,0.1-0.7,0.2-1,0.3c-0.3,0.1-0.6,0.2-0.9,0.3c-0.2,0-0.3,0-0.4-0.1  C47,51,47,51,46.9,50.9c-0.9-0.9-1.8-1.8-2.6-2.7c-0.1-0.1-0.2-0.2-0.3-0.2c-0.1-0.1-0.2-0.1-0.4-0.1C43.4,48,43.2,48,43,48.2  c-0.1,0.1-0.2,0.2-0.1,0.3c0,0.1,0.1,0.1,0.1,0.2c0.4,0.7,0.8,1.3,1.2,2c0.2,0.3,0.3,0.5,0.4,0.8c0,0.1,0,0.2,0.1,0.3c0,0,0,0-0.1,0  c-0.5,0.2-1,0.3-1.5,0.5c-0.3,0.1-0.5,0.2-0.8,0.3c0,0,0,0-0.1,0c0,0-0.1-0.1-0.1-0.1c-0.2-0.2-0.3-0.4-0.5-0.6  c-0.1-0.1-0.2-0.2-0.4-0.1c-0.1,0-0.2,0.1-0.3,0.1c-0.1,0.1-0.2,0.1-0.2,0.3c0,0.1,0,0.2,0.1,0.2c0.2,0.8,0.4,1.7,0.6,2.5  c0,0.1,0,0.1,0.1,0.2c0,0.1,0.1,0.1,0.2,0.2c0.2,0,0.3,0,0.5-0.2c0.1-0.1,0.2-0.3,0.2-0.5c0-0.2,0.1-0.5,0.1-0.7c0,0,0-0.1,0.1-0.1  c0.8-0.2,1.6-0.4,2.4-0.5c0,0,0,0,0.1,0c0,0.1,0,0.2,0,0.3c0,0.3,0.1,0.5,0,0.8c-0.1,0.7-0.1,1.5-0.2,2.2c0,0.2,0,0.4,0,0.5  c0,0.2,0.1,0.3,0.3,0.3c0.1,0,0.1,0,0.2,0c0.2,0,0.5-0.1,0.6-0.3c0.1-0.1,0.2-0.3,0.2-0.5c0.3-1,0.6-2,0.9-2.9  c0.1-0.3,0.2-0.7,0.3-1c0.1-0.2,0.2-0.3,0.4-0.3c0,0,0,0,0,0c0.6-0.2,1.1-0.3,1.7-0.5c0.3-0.1,0.5-0.2,0.7-0.3  c0.2-0.1,0.3-0.2,0.5-0.4c0.1-0.1,0.1-0.3,0.1-0.5C50.7,50.7,50.6,50.7,50.4,50.6z"/><path d="M32,56.4c-0.4-0.4-1-0.4-1.4,0s-0.4,1,0,1.4l10.1,10.1c0.2,0.2,0.5,0.3,0.7,0.3s0.5-0.1,0.7-0.3c0.4-0.4,0.4-1,0-1.4  L32,56.4z"/><path d="M27.6,60.8c-0.4-0.4-1-0.4-1.4,0s-0.4,1,0,1.4l10.1,10.1c0.2,0.2,0.5,0.3,0.7,0.3s0.5-0.1,0.7-0.3c0.4-0.4,0.4-1,0-1.4  L27.6,60.8z"/><path d="M23,65.3c-0.4-0.4-1-0.4-1.4,0s-0.4,1,0,1.4l10.1,10.1c0.2,0.2,0.5,0.3,0.7,0.3s0.5-0.1,0.7-0.3c0.4-0.4,0.4-1,0-1.4  L23,65.3z"/><path d="M89.6,12.9c-0.7-0.6-1.5-0.8-2.5-0.7C81.8,12.6,71.8,23.1,62,34.5l-5.3-5.3c-0.2-0.2-0.6-0.3-0.9-0.3L47.3,31  c-0.2,0-0.3,0.1-0.5,0.3L10.2,68c-0.4,0.4-0.4,1,0,1.4l19.3,19.3c0.2,0.2,0.4,0.3,0.7,0.3s0.5-0.1,0.7-0.3L67.5,52  c0.1-0.1,0.2-0.3,0.3-0.5l2.1-8.4c0.1-0.3,0-0.7-0.3-0.9L63.5,36c3.6-3.3,9-6.7,13.9-9.8c8-5,12.9-8.3,13.2-11.2  C90.6,14.5,90.5,13.7,89.6,12.9z M67.8,43.2l-1.9,7.6L30.1,86.6L12.3,68.7l35.8-35.8l7.6-1.9l5,5c-0.1,0.2-0.3,0.3-0.4,0.5  c-0.1,0.1-0.2,0.2-0.3,0.4c0,0,0,0.1-0.1,0.1c-0.5,0.6-1.1,1.3-1.6,1.9c-0.6-0.3-1.2-0.5-1.9-0.5c-1.1,0-2.2,0.4-3,1.2  c-1.6,1.6-1.6,4.3,0,5.9c0.8,0.8,1.8,1.2,3,1.2s2.2-0.4,3-1.2c1.5-1.5,1.6-3.7,0.5-5.4c0.6-0.7,1.2-1.4,1.9-2.2  c0.2-0.2,0.3-0.3,0.5-0.5L67.8,43.2z M55.5,43.6c0.2,0.2,0.4,0.2,0.6,0.2c0.3,0,0.6-0.1,0.8-0.4l1.5-1.7c0.3,0.8,0.1,1.7-0.5,2.3  c-0.8,0.8-2.3,0.8-3.1,0c-0.9-0.9-0.9-2.3,0-3.1c0.6-0.6,1.4-0.7,2.1-0.5l-1.5,1.8C55,42.6,55,43.3,55.5,43.6z M88.6,15  c-0.1,2-6.6,6-12.2,9.6c-2.2,1.4-4.6,2.9-6.8,4.4c6.8-7.4,14.1-14.5,17.8-14.8c0.1,0,0.1,0,0.2,0c0.4,0,0.7,0.1,0.8,0.3  C88.6,14.7,88.6,14.9,88.6,15z"/><text x="0" y="115" fill="#000000" font-size="5px" font-weight="bold" font-family="'Helvetica Neue', Helvetica, Arial-Unicode, Arial, Sans-serif">Created by Made by Made</text><text x="0" y="120" fill="#000000" font-size="5px" font-weight="bold" font-family="'Helvetica Neue', Helvetica, Arial-Unicode, Arial, Sans-serif">from the Noun Project</text></svg>
  </symbol>
    <!-- Icons go here -->
  </defs>
</svg>
