<svg xmlns="http://www.w3.org/2000/svg">
  <defs>
  <symbol id="icon-money" viewBox="0 0 100 125">
  <svg xmlns="http://www.w3.org/2000/svg" xmlns:xlink="http://www.w3.org/1999/xlink" version="1.1" x="0px" y="0px" viewBox="0 0 100 125" style="enable-background:new 0 0 100 100;" xml:space="preserve"><path d="M26.6748047,47.9887695c0.1308594,0.0585938,0.2705078,0.0874023,0.4091797,0.0874023  c0.2402344,0,0.4785156-0.0869141,0.6650391-0.253418l20.2597656-18.0532227  c0.2128906-0.1899414,0.3349609-0.4614258,0.3349609-0.746582s-0.1220703-0.5566406-0.3349609-0.746582L27.7490234,10.2226562  c-0.2939453-0.262207-0.7167969-0.3261719-1.0742188-0.1660156c-0.359375,0.1611328-0.5908203,0.5185547-0.5908203,0.9125977  v8.8066406H11c-0.5527344,0-1,0.4477539-1,1v16.4257812c0,0.5522461,0.4472656,1,1,1h15.0839844v8.8745117  C26.0839844,47.4702148,26.3154297,47.8276367,26.6748047,47.9887695z M12,36.2016602V21.7758789h15.0839844  c0.5527344,0,1-0.4477539,1-1V13.199707l17.7568359,15.8232422L28.0839844,44.8457031v-7.644043c0-0.5522461-0.4472656-1-1-1H12z"/><path d="M89.0322266,61.7827148H73.9482422v-8.8745117c0-0.394043-0.2314453-0.7514648-0.5908203-0.9125977  C73,51.8359375,72.5771484,51.8989258,72.2832031,52.1616211L52.0234375,70.2148438  c-0.2128906,0.1899414-0.3349609,0.4614258-0.3349609,0.746582s0.1220703,0.5566406,0.3349609,0.746582l20.2597656,18.0537109  c0.1865234,0.1665039,0.4248047,0.253418,0.6650391,0.253418c0.1386719,0,0.2783203-0.0288086,0.4091797-0.0874023  c0.359375-0.1611328,0.5908203-0.5185547,0.5908203-0.9125977v-8.8066406h15.0839844c0.5527344,0,1-0.4477539,1-1V62.7827148  C90.0322266,62.2304688,89.5849609,61.7827148,89.0322266,61.7827148z M88.0322266,78.2084961H72.9482422  c-0.5527344,0-1,0.4477539-1,1v7.5761719L54.1914062,70.9614258l17.7568359-15.8227539v7.644043c0,0.5522461,0.4472656,1,1,1  h15.0839844V78.2084961z"/><path d="M70.9746094,48.0629883c10.4980469,0,19.0390625-8.5410156,19.0390625-19.0390625  S81.4726562,9.9848633,70.9746094,9.9848633s-19.0390625,8.5410156-19.0390625,19.0390625  S60.4765625,48.0629883,70.9746094,48.0629883z M70.9746094,11.9848633c9.3955078,0,17.0390625,7.6435547,17.0390625,17.0390625  s-7.6435547,17.0390625-17.0390625,17.0390625s-17.0390625-7.6435547-17.0390625-17.0390625  S61.5791016,11.9848633,70.9746094,11.9848633z"/><path d="M68.7919312,27.9355469h-2.2284546c-0.5527344,0-1,0.4477539-1,1s0.4472656,1,1,1h3.4111328v4.2353516h-3.4111328  c-0.5527344,0-1,0.4477539-1,1s0.4472656,1,1,1h3.4111328v3.4858398c0,0.5522461,0.4472656,1,1,1s1-0.4477539,1-1v-3.4858398  h3.4101562c0.5527344,0,1-0.4477539,1-1s-0.4472656-1-1-1h-3.4101562v-4.2353516h3.4101562c0.5527344,0,1-0.4477539,1-1  s-0.4472656-1-1-1h-2.2276611l6.3389893-7.3447266c0.3613281-0.4179688,0.3144531-1.0493164-0.1035156-1.4101562  c-0.4169922-0.3613281-1.0498047-0.3144531-1.4101562,0.1035156l-7.0078125,8.1196289l-7.0087891-8.1196289  c-0.3603516-0.4179688-0.9941406-0.4648438-1.4101562-0.1035156c-0.4179688,0.3608398-0.4648438,0.9921875-0.1035156,1.4101562  L68.7919312,27.9355469z"/><path d="M29.0390625,90.0004883c10.4980469,0,19.0390625-8.5410156,19.0390625-19.0390625  s-8.5410156-19.0390625-19.0390625-19.0390625S10,60.4633789,10,70.9614258S18.5410156,90.0004883,29.0390625,90.0004883z   M29.0390625,53.9223633c9.3955078,0,17.0390625,7.6435547,17.0390625,17.0390625s-7.6435547,17.0390625-17.0390625,17.0390625  S12,80.3569336,12,70.9614258S19.6435547,53.9223633,29.0390625,53.9223633z"/><path d="M21.9667969,71.0512695h1.932251c-0.3916626,3.0840454-1.1759033,6.7753296-2.7496338,9.0073242  c-0.2148438,0.3051758-0.2421875,0.7050781-0.0703125,1.0366211s0.5146484,0.5395508,0.8876953,0.5395508H34.5  c0.5527344,0,1-0.4477539,1-1s-0.4472656-1-1-1H23.7021484c1.234375-2.5431519,1.8775635-5.8335571,2.2150269-8.5834961h4.6824341  c0.5527344,0,1-0.4477539,1-1s-0.4472656-1-1-1h-4.4768677c0.1552124-1.8771362,0.1659546-3.2138672,0.1663208-3.3652344  c0-2.3769531,1.9335938-4.3105469,4.3105469-4.3105469s4.3105469,1.9335938,4.3105469,4.3105469c0,0.5522461,0.4472656,1,1,1  s1-0.4477539,1-1c0-3.4794922-2.8310547-6.3105469-6.3105469-6.3105469s-6.3105469,2.8310547-6.3105469,6.3071289  c0,0.0368652-0.0098267,1.4208984-0.1773682,3.3686523h-2.1448975c-0.5527344,0-1,0.4477539-1,1  S21.4140625,71.0512695,21.9667969,71.0512695z"/><text x="0" y="115" fill="#000000" font-size="5px" font-weight="bold" font-family="'Helvetica Neue', Helvetica, Arial-Unicode, Arial, Sans-serif">Created by Made by Made</text><text x="0" y="120" fill="#000000" font-size="5px" font-weight="bold" font-family="'Helvetica Neue', Helvetica, Arial-Unicode, Arial, Sans-serif">from the Noun Project</text></svg>
  </symbol>
    <!-- Icons go here -->
  </defs>
</svg>