<svg xmlns="http://www.w3.org/2000/svg">
  <defs>
  <symbol id="icon-map" viewBox="0 0 100 125"> 
  <svg xmlns="http://www.w3.org/2000/svg" xmlns:xlink="http://www.w3.org/1999/xlink" 
  version="1.1" x="0px" y="0px" viewBox="0 0 100 125" style="enable-background:new 0 0 100 100;" 
  xml:space="preserve"><path d="M10.9990234,79.9243164h29V89c0,0.5522461,0.4477539,1,1,1h48c0.5522461,0,1-0.4477539,1-1V21.0756836  c0-0.5522461-0.4477539-1-1-1h-29V11c0-0.5522461-0.4477539-1-1-1h-48c-0.5522461,0-1,0.4477539-1,1v67.9243164  C9.9990234,79.4765625,10.4467773,79.9243164,10.9990234,79.9243164z M55.1472168,79.9243164l-13.1481934,7.3195801v-7.3195801  H55.1472168z M87.9990234,22.0756836V88H44.75177l14.7335815-8.2021484  c0.0390625-0.0217285,0.0628052-0.0575562,0.0977173-0.0834961c0.0568237-0.0421143,0.1115723-0.0822754,0.1583252-0.1352539  c0.0426636-0.0483398,0.072998-0.1011353,0.1051025-0.1559448c0.0326538-0.0551758,0.0643311-0.1079102,0.0859985-0.1693115  c0.0233154-0.065918,0.0316162-0.1326294,0.0407715-0.2019653c0.0057983-0.0436401,0.0257568-0.0823364,0.0257568-0.1275635  V22.0756836H87.9990234z M11.9990234,12h46v65.9243164h-46V12z"/><path d="M49.3354492,47.4311523h-1.4624023V32.3881836h1.4624023c0.4208984,0,0.7963867-0.2631836,0.9399414-0.6586914  s0.0244141-0.8383789-0.2983398-1.1083984L35.5449219,18.546875c-0.3710938-0.3105469-0.9121094-0.3105469-1.2832031,0  L19.8291016,30.6210938c-0.3227539,0.2700195-0.4418945,0.7128906-0.2983398,1.1083984s0.519043,0.6586914,0.9399414,0.6586914  h1.4331055v15.0429688h-1.4331055c-0.5522461,0-1,0.4477539-1,1s0.4477539,1,1,1h28.8647461c0.5522461,0,1-0.4477539,1-1  S49.8876953,47.4311523,49.3354492,47.4311523z M45.8730469,47.4311523H35.8554688V32.3881836h10.0175781V47.4311523z   M34.9033203,20.6176758l11.6782227,9.7705078H23.2246094L34.9033203,20.6176758z M23.9038086,32.3881836h9.9516602v15.0429688  h-9.9516602V32.3881836z"/><path d="M49.3354492,57.8334961H20.668457c-0.5522461,0-1,0.4477539-1,1s0.4477539,1,1,1h28.6669922c0.5522461,0,1-0.4477539,1-1  S49.8876953,57.8334961,49.3354492,57.8334961z"/><path d="M49.3354492,65.9677734H20.668457c-0.5522461,0-1,0.4477539-1,1s0.4477539,1,1,1h28.6669922c0.5522461,0,1-0.4477539,1-1  S49.8876953,65.9677734,49.3354492,65.9677734z"/><text x="0" y="115" fill="#000000" font-size="5px" font-weight="bold" font-family="'Helvetica Neue', Helvetica, Arial-Unicode, Arial, Sans-serif">Created by Made by Made</text><text x="0" y="120" fill="#000000" font-size="5px" font-weight="bold" font-family="'Helvetica Neue', Helvetica, Arial-Unicode, Arial, Sans-serif">from the Noun Project</text></svg>
  </symbol>
  <!-- Icons go here -->
  </defs>
</svg>